<?xml version="1.0" encoding="utf-8"?>
<!-- Generator: Adobe Illustrator 18.0.0, SVG Export Plug-In . SVG Version: 6.00 Build 0)  -->
<!DOCTYPE svg PUBLIC "-//W3C//DTD SVG 1.1//EN" "http://www.w3.org/Graphics/SVG/1.1/DTD/svg11.dtd">
<svg version="1.1" id="Layer_1" xmlns="http://www.w3.org/2000/svg" xmlns:xlink="http://www.w3.org/1999/xlink" x="0px" y="0px"
	 viewBox="-46 133.9 670 474" enable-background="new -46 133.9 670 474" xml:space="preserve">
<path fill="#77C373" d="M59.1,368.5c1.3-33.1,3.9-62,6.6-89.3c-50.3,34-83.8,66.5-96.5,94.6c-32.9,68.8,62.5,192.3,89.8,224.5
	L57,537.7C56.3,529.3,55.5,452.4,59.1,368.5z"/>
<path fill="#034E70" d="M126.3,160.6C87.5,210.5,87.6,453,87.6,519.8l11.4-24.7c11.4-24.7,112.5-239.7,191.4-333.6
	C239.7,143.9,156.7,122.5,126.3,160.6z"/>
<path fill="#2490CC" d="M596.3,307.9l-2.7-11.6c-2.4-8.2-5.6-15.6-11.1-20.2c-9.1-7.7-20.1-7.5-32.9,0.3L196,494.2
	c57.7,12.7,340.8,69.9,395.6,30.5C633.8,494.8,610.1,378.6,596.3,307.9z"/>
<path fill="#212833" d="M436.7,174c-34.7-29.1-65-37.4-88.3-24.4c-63.7,35.1-186.2,286.7-214,345.8l97.9-59.3l282.3-173.4
	C502.2,246,472.3,203.9,436.7,174z"/>
</svg>
